<?xml version="1.0" standalone="no"?>
<!DOCTYPE svg PUBLIC "-//W3C//DTD SVG 20010904//EN"
 "http://www.w3.org/TR/2001/REC-SVG-20010904/DTD/svg10.dtd">
<svg version="1.0" xmlns="http://www.w3.org/2000/svg"
 width="512.000000pt" height="512.000000pt" viewBox="0 0 512.000000 512.000000"
 preserveAspectRatio="xMidYMid meet">
<metadata>
Created by potrace 1.14, written by Peter Selinger 2001-2017
</metadata>
<g transform="translate(0.000000,512.000000) scale(0.100000,-0.100000)"
fill="#000000" stroke="none">
<path d="M0 2560 l0 -2560 2560 0 2560 0 0 2560 0 2560 -2560 0 -2560 0 0
-2560z m2122 5 c301 -726 548 -1326 548 -1332 0 -10 -44 -13 -189 -13 l-189 0
-41 98 c-22 53 -96 232 -165 397 l-124 300 -539 2 -538 3 -164 -400 -163 -400
-194 0 c-107 0 -194 3 -194 6 0 6 1073 2577 1102 2639 l11 26 145 -3 145 -3
549 -1320z m2083 1310 c263 -56 502 -285 603 -577 32 -92 36 -117 40 -234 9
-270 -69 -477 -248 -655 -71 -71 -103 -95 -183 -134 -95 -47 -97 -49 -83 -71
84 -127 607 -956 612 -968 6 -14 -14 -16 -199 -16 l-205 0 -302 475 -303 475
-334 0 -333 0 0 -475 0 -475 -180 0 -180 0 0 1335 0 1335 613 0 c501 0 625 -3
682 -15z"/>
<path d="M1212 2878 c-116 -282 -214 -521 -218 -530 -6 -17 19 -18 425 -18
255 0 431 4 431 9 0 8 -419 1042 -425 1049 -1 1 -97 -228 -213 -510z"/>
<path d="M3270 3030 l0 -530 405 0 c424 0 473 4 555 45 176 89 289 353 250
584 -26 155 -143 320 -272 383 -85 42 -153 48 -560 48 l-378 0 0 -530z"/>
</g>
</svg>
